<svg width="14" height="11" viewBox="0 0 14 11" fill="none" xmlns="http://www.w3.org/2000/svg">
<path d="M12.9648 2.14041L11.8016 1.03914C11.6448 0.89065 11.4487 0.816406 11.2265 0.816406C11.0044 0.816406 10.8083 0.89065 10.6515 1.03914L5.05782 6.33516L2.56158 3.95937C2.40475 3.81089 2.20871 3.73664 1.98653 3.73664C1.76436 3.73664 1.56832 3.81089 1.41149 3.95937L0.248317 5.06065C0.0784158 5.20914 0 5.39475 0 5.6051C0 5.81546 0.0784158 6.00107 0.235248 6.14955L3.3196 9.06979L4.48277 10.1711C4.6396 10.3196 4.83564 10.3938 5.05782 10.3938C5.28 10.3938 5.47604 10.3196 5.63287 10.1711L6.79604 9.06979L12.9648 3.22932C13.1216 3.08083 13.2 2.89522 13.2 2.68486C13.2 2.47451 13.1216 2.2889 12.9648 2.14041Z" fill="#FD2016"/>
</svg>
