<svg width="36" height="36" viewBox="0 0 36 36" fill="none" xmlns="http://www.w3.org/2000/svg">
<rect y="0.917969" width="35.0324" height="34.9176" rx="17.4588" fill="#F8F8F8"/>
<path d="M15.25 10.8945H11.5C10.675 10.8945 10 11.5679 10 12.391V16.1322C10 16.9552 10.675 17.6286 11.5 17.6286H15.25C16.075 17.6286 16.75 16.9552 16.75 16.1322V12.391C16.75 11.5679 16.075 10.8945 15.25 10.8945ZM15.25 14.6357H11.5V13.8875H15.25V14.6357ZM23.5 19.1251H19.75C18.925 19.1251 18.25 19.7985 18.25 20.6216V24.3627C18.25 25.1858 18.925 25.8592 19.75 25.8592H23.5C24.325 25.8592 25 25.1858 25 24.3627V20.6216C25 19.7985 24.325 19.1251 23.5 19.1251ZM23.5 23.6145H19.75V22.8663H23.5V23.6145ZM23.5 22.118H19.75V21.3698H23.5V22.118ZM23.5 10.8945H19.75C18.925 10.8945 18.25 11.5679 18.25 12.391V16.1322C18.25 16.9552 18.925 17.6286 19.75 17.6286H23.5C24.325 17.6286 25 16.9552 25 16.1322V12.391C25 11.5679 24.325 10.8945 23.5 10.8945ZM23.5 14.6357H22V16.1322H21.25V14.6357H19.75V13.8875H21.25V12.391H22V13.8875H23.5V14.6357ZM15.25 19.1251H11.5C10.675 19.1251 10 19.7985 10 20.6216V24.3627C10 25.1858 10.675 25.8592 11.5 25.8592H15.25C16.075 25.8592 16.75 25.1858 16.75 24.3627V20.6216C16.75 19.7985 16.075 19.1251 15.25 19.1251ZM14.95 23.5397L14.425 24.0634L13.375 23.0159L12.325 24.0634L11.8 23.5397L12.85 22.4922L11.8 21.4446L12.325 20.9209L13.375 21.9684L14.425 20.9209L14.95 21.4446L13.9 22.4922L14.95 23.5397Z" fill="#FD2016"/>
</svg>
