<svg width="12" height="16" viewBox="0 0 12 16" fill="none" xmlns="http://www.w3.org/2000/svg">
<path d="M11.9747 7.89831C11.7727 9.31172 11.1666 10.5157 10.207 11.5104C9.65145 12.0339 9.14638 12.6097 8.59081 13.1332C7.7827 14.0231 6.9746 14.9654 6.1665 15.8553C4.44927 14.0231 2.78256 12.4526 1.21686 10.7251C0.307738 9.67816 -0.0458079 8.3171 0.00469863 6.90369C0.0552052 3.86747 2.328 1.25004 5.15637 0.935946C8.33828 0.569506 11.0656 2.45406 11.8737 5.54262C12.0758 6.17081 11.9747 7.79361 11.9747 7.89831ZM6.01498 9.15468C7.07561 9.15468 7.98473 8.26475 7.98473 7.16543C7.98473 6.06611 7.07561 5.12383 6.06548 5.12383C5.05535 5.12383 4.09573 6.06611 4.09573 7.11308C4.09573 8.2124 4.95434 9.15468 6.01498 9.15468Z" fill="#FD2016"/>
</svg>
