<svg width="19" height="32" viewBox="0 0 19 32" fill="none" xmlns="http://www.w3.org/2000/svg">
<path fill-rule="evenodd" clip-rule="evenodd" d="M10.1932 4.4315V0.766077C10.1932 0.470479 10.1339 0.352239 10.0154 0.234C9.89687 0.11576 9.7191 0.0566406 9.48206 0.0566406C9.24502 0.0566406 9.06725 0.11576 8.94873 0.234C8.83021 0.352239 8.77095 0.470479 8.77095 0.766077V4.4315L8.1191 4.54974C3.73391 5.20005 0.296875 9.10195 0.296875 13.8315V22.5221C0.296875 27.8429 4.38576 31.9813 9.48206 31.9813C14.5784 31.9813 18.6672 27.8429 18.6672 22.5221V13.8315C18.6672 9.10195 15.2302 5.20005 10.7858 4.54974L10.1932 4.4315ZM1.65984 13.8315C1.65984 9.33843 5.09688 5.79125 9.48206 5.79125C13.8672 5.79125 17.3043 9.33843 17.3043 13.8315V22.8177C17.3043 27.3108 13.8672 30.858 9.48206 30.858C5.09688 30.858 1.65984 27.3108 1.65984 22.8177V13.8315Z" fill="#EFEFEF"/>
</svg>
