<svg width="6" height="7" viewBox="0 0 6 7" fill="none" xmlns="http://www.w3.org/2000/svg">
<path d="M5.04328 4.57329C4.8333 4.35598 4.56032 4.35598 4.34159 4.57329C4.17711 4.73669 4.01437 4.89837 3.84989 5.06178C3.80439 5.10697 3.76764 5.11567 3.7134 5.08959C3.61366 5.02701 3.49467 4.98181 3.39493 4.91749C2.92072 4.61848 2.52001 4.23777 2.16479 3.80491C1.99156 3.58761 1.83757 3.36162 1.72733 3.09912C1.70984 3.04523 1.70984 3.01742 1.75533 2.97222C1.92857 2.8175 2.08255 2.65583 2.24704 2.49242C2.47451 2.26643 2.47451 2.00393 2.24704 1.77794C2.11055 1.64234 1.98281 1.51544 1.85507 1.38853C1.71858 1.25294 1.59085 1.11734 1.45436 0.99044C1.24438 0.781832 0.971404 0.781832 0.752674 0.99044C0.58819 1.15385 0.425455 1.31552 0.26097 1.47893C0.105235 1.63365 0.024742 1.81444 0.00549378 2.02131C-0.0225036 2.35682 0.0597387 2.6819 0.178728 2.99829C0.425455 3.65889 0.79817 4.22908 1.24438 4.76277C1.85507 5.48768 2.583 6.05788 3.43168 6.46466C3.81489 6.64546 4.20685 6.78975 4.62506 6.81756C4.92604 6.83494 5.18151 6.75498 5.38974 6.52725C5.52623 6.36384 5.69072 6.22824 5.83595 6.07526C6.05468 5.84927 6.05468 5.57808 5.83595 5.36078C5.57173 5.09828 5.3075 4.83578 5.04328 4.57329Z" fill="#FD2016"/>
</svg>
