<svg width="36" height="36" viewBox="0 0 36 36" fill="none" xmlns="http://www.w3.org/2000/svg">
<rect y="0.919922" width="35.0324" height="34.9176" rx="17.4588" fill="#776EE9"/>
<path d="M18.9967 11.2734H16.1551C13.4044 11.2734 11.1857 13.5125 11.1857 16.2917V18.4424C11.1857 20.3835 12.2886 22.1479 14.0272 22.9728V25.3756C14.0272 25.4967 14.1375 25.608 14.277 25.608C14.3321 25.608 14.397 25.5851 14.4424 25.5425L16.4957 23.4573H18.9967C21.7507 23.4573 23.9694 21.2183 23.9694 18.4391V16.2884C23.9694 13.5125 21.7507 11.2734 18.9967 11.2734ZM20.8651 20.6781L20.1547 21.395C19.3892 22.1447 17.4235 21.2837 15.6848 19.4997C13.9461 17.7156 13.1741 15.6959 13.9072 14.9463L14.6176 14.2294C14.903 13.9642 15.3507 13.9773 15.6329 14.2523L16.6612 15.3325C16.9239 15.6206 16.9239 16.0494 16.6385 16.3375C16.5606 16.4161 16.473 16.4586 16.3757 16.5045C16.0157 16.6158 15.8308 16.966 15.9183 17.3326C16.0935 18.1281 17.0861 19.12 17.8419 19.3164C18.1922 19.4048 18.5523 19.2051 18.6723 18.8646C18.7923 18.5111 19.1848 18.3147 19.5579 18.4358C19.6682 18.4685 19.7557 18.5471 19.8433 18.6126L20.8716 19.6928C21.1279 19.9514 21.1279 20.3933 20.8651 20.6781ZM18.2117 14.6811C18.1338 14.6811 18.069 14.6811 18.0041 14.704C17.8841 14.727 17.7543 14.6255 17.7413 14.4847C17.7284 14.344 17.8192 14.2327 17.9489 14.2196C18.0365 14.1967 18.1241 14.1967 18.2117 14.1967C19.5222 14.1967 20.5732 15.2769 20.5926 16.5797C20.5926 16.6681 20.5926 16.7565 20.5699 16.8449C20.5472 16.966 20.4499 17.0773 20.3072 17.0544C20.1645 17.0315 20.0769 16.9333 20.0996 16.7892C20.0996 16.7107 20.1223 16.6452 20.1223 16.5797C20.1125 15.5421 19.2594 14.6811 18.2117 14.6811ZM19.6325 16.5994C19.6098 16.7205 19.5125 16.8318 19.3697 16.8089C19.2594 16.786 19.1621 16.6976 19.1621 16.5994C19.1621 16.0822 18.7372 15.6501 18.2214 15.6501C18.1014 15.673 17.9717 15.5617 17.9587 15.4308C17.936 15.3096 18.0463 15.1787 18.1663 15.1656H18.1987C19.0194 15.1656 19.6325 15.8039 19.6325 16.5994ZM21.4457 17.3588C21.423 17.4799 21.303 17.5683 21.183 17.5585C21.063 17.5487 20.9754 17.4145 20.9851 17.2934C20.9851 17.2704 20.9851 17.2704 20.9851 17.2606C21.0403 17.0511 21.063 16.8318 21.063 16.5994C21.063 15.0216 19.7849 13.7318 18.2214 13.7318C18.1436 13.7318 18.0787 13.7318 18.0138 13.7318C17.8938 13.7547 17.7641 13.6434 17.7641 13.5125C17.7413 13.3914 17.8516 13.2604 17.9717 13.2604C18.0592 13.2604 18.1468 13.2375 18.2214 13.2375C20.0477 13.2375 21.5431 14.7368 21.5431 16.5896C21.5333 16.8416 21.5009 17.1166 21.4457 17.3588Z" fill="white"/>
</svg>
