<svg width="36" height="36" viewBox="0 0 36 36" fill="none" xmlns="http://www.w3.org/2000/svg">
<rect y="0.919922" width="35.0324" height="34.9176" rx="17.4588" fill="#20C863"/>
<path d="M17.1784 11.2734C13.4292 11.2734 10.3871 14.3056 10.3871 18.0425C10.3871 19.5389 10.873 20.9171 11.6948 22.0394L10.8296 24.5911L13.5279 23.7524C14.5828 24.4218 15.8352 24.8116 17.1784 24.8116C20.9277 24.8116 23.9698 21.7795 23.9698 18.0425C23.9698 14.3056 20.9277 11.2734 17.1784 11.2734ZM20.2877 21.6732C19.0551 22.1654 17.5854 21.6889 15.9774 20.4722C14.3695 19.2554 13.3106 17.5424 13.2395 16.2705C13.1684 14.9986 14.2075 14.3567 14.7724 14.3607C15.3374 14.3646 15.9577 16.1642 15.9656 16.4398C15.9735 16.7194 15.2742 17.2156 15.2465 17.4519C15.2189 17.6881 16.1987 18.8537 16.6135 19.1687C17.0244 19.4798 17.8738 20.0784 18.3123 20.0233C18.7469 19.9642 19.0353 19.0939 19.3119 19.0388C19.5884 18.9837 21.0976 19.7319 21.2477 19.9248C21.3979 20.1217 21.3821 21.24 20.2877 21.6732Z" fill="white"/>
</svg>
