<svg width="30" height="31" viewBox="0 0 30 31" fill="none" xmlns="http://www.w3.org/2000/svg">
<path d="M15 0.261719C6.71902 0.261719 0 6.96492 0 15.2264C0 18.5345 1.0733 21.5814 2.88831 24.0624L0.977312 29.7036L6.93717 27.8493C9.26702 29.3292 12.0332 30.1911 15 30.1911C23.281 30.1911 30 23.4879 30 15.2264C30 6.96492 23.281 0.261719 15 0.261719ZM21.8674 23.2528C19.1449 24.341 15.8988 23.2876 12.3473 20.5977C8.79581 17.9077 6.45724 14.1208 6.30017 11.3089C6.14311 8.49708 8.43805 7.07809 9.68586 7.08679C10.9337 7.0955 12.3037 11.0739 12.3211 11.6833C12.3386 12.3014 10.7941 13.3982 10.733 13.9206C10.6719 14.4429 12.836 17.0197 13.7522 17.7162C14.6597 18.4039 16.5358 19.7271 17.5044 19.6052C18.4642 19.4747 19.1012 17.5507 19.712 17.4289C20.3229 17.307 23.6562 18.961 23.9878 19.3876C24.3194 19.8229 24.2845 22.2952 21.8674 23.2528Z" fill="#20C863"/>
</svg>
